<?xml version="1.0" encoding="utf-8"?>
<!-- Generator: Adobe Illustrator 23.0.0, SVG Export Plug-In . SVG Version: 6.00 Build 0)  -->
<svg version="1.1" id="Layer_1" xmlns="http://www.w3.org/2000/svg" xmlns:xlink="http://www.w3.org/1999/xlink" x="0px" y="0px"
	 viewBox="0 0 448.8 448.8" style="enable-background:new 0 0 448.8 448.8;" xml:space="preserve">
<g>
	<path d="M271.7,183.6v-0.5c-0.4,0.3-0.7,0.4-1.1,0.5H271.7z"/>
	<path d="M266.8,181.4c0.3,0,0.4,0.2,0.6,0.4l3.3-1.3c-0.3-0.7-0.7-1.3-1.3-2.1l-3,3H266.8z"/>
	<path d="M254.6,183.7h6.2l-1.4-0.6c-0.2,0-0.4-0.1-0.6-0.3l-4,0.2C254.6,183.2,254.6,183.4,254.6,183.7z"/>
	<path d="M263.8,171.7v0.7h-8.9c-0.1-0.8-0.5-1.3-1-1.4c-0.5-0.3-1-0.3-1-0.3h-6.4c-0.2,0-0.3,0.1-0.3,0.2l-0.2,0.4
		c-0.1,0.2-0.3,0.4-0.6,0.4c-0.6,0.1-1.2,0.5-1.7,1.1c-0.5,0.6-0.9,1.3-1.1,1.7c-0.2,0.4-0.4,0.6-0.5,0.8c-0.1,0.1-0.2,0.2-0.3,0.2
		h-32.7c0.1,0.1,0.3,0.3,0.4,0.4H242c0,0,0.8-0.4,1.1-1.3c0.1-0.4,0.5-0.9,1-1.4c0.4-0.5,1-1,1.3-1c0.4-0.1,0.8-0.4,1-0.6
		c0.1-0.2,0.2-0.3,0.2-0.4h6.5c0.2,0.1,0.5,0.2,0.8,0.4s0.4,0.5,0.4,1.1c0,0.1,0,0.2,0.1,0.2c0,0.1,0.1,0.1,0.3,0.1h9.3
		c0.1,0,0.1,0,0.2-0.1c0.1-0.1,0.1-0.1,0.1-0.2v-0.9c0-0.1-0.1-0.2-0.1-0.2s-0.2-0.3-0.5-0.6c-1.1-1.1-3.3-3.7-4.3-5.9
		c0-0.1-0.2-0.2-0.3-0.1c-0.1,0.1-0.2,0.3-0.1,0.4C260.2,168,263.3,171.1,263.8,171.7z"/>
	<path d="M265.1,181.5l3.7-3.7c-0.6-0.5-1.3-1-2-1.3l-2.1,5H265.1z"/>
	<path d="M265.1,167.7c0.2,0.4,0.2,0.4,0.7,0.7c0.2,0.1,0.4,0.1,0.5,0.1c0.3,0,0.6-0.2,0.8-0.4c0.3-0.2,0.4-0.4,0.4-0.7v-0.1
		c-0.1-0.5-0.5-1.1-1-1.1c-0.2,0-0.3,0-0.4,0.1c-0.2,0.1-0.3,0.3-0.3,0.4c0,0.2,0.1,0.4,0.2,0.5s0.3,0.3,0.4,0.3h0.2
		c0.2-0.1,0.2-0.2,0.2-0.2c0-0.1-0.1-0.1-0.1-0.1c-0.1-0.1-0.1-0.2-0.1-0.3c0.1-0.1,0.2-0.1,0.3-0.1c0,0.1,0.3,0.1,0.3,0.4
		c0,0.3-0.1,0.4-0.4,0.5c-0.2,0.1-0.3,0.1-0.4,0.1c-0.3,0-0.5-0.2-0.7-0.4c-0.2-0.3-0.3-0.5-0.3-0.8s0.1-0.5,0.4-0.7
		c0.1,0,0.1-0.1,0.2-0.1h-2.3c0.2,0.1,0.3,0.2,0.4,0.3C264.8,166.8,265.1,167.3,265.1,167.7z"/>
	<path d="M264.1,178v2.7l1.9-4.6c-0.6-0.2-1.3-0.4-1.9-0.4V178z"/>
	<path d="M264.2,171c0.1,0.1,0.2,0.3,0.2,0.4v0.6h2.9V171H267c-0.1,0-0.3-0.1-0.4-0.2c-0.1-0.1-0.2-0.3-0.2-0.4
		c0-0.1,0.1-0.3,0.2-0.4c0.2-0.2,0.2-0.2,0.2-0.3s-0.2-0.4-0.4-0.4h-0.1l-0.1,0.1c-0.1,0.2-0.3,0.3-0.4,0.3c-0.1,0-0.2,0-0.3-0.1
		c-0.2-0.1-0.3-0.3-0.3-0.4c0-0.1,0.1-0.2,0.1-0.3c-0.7-0.3-1-0.8-1.1-1.2c-0.1-0.4-0.2-0.5-0.8-1c-0.3-0.2-0.4-0.3-0.5-0.3v0.1
		c0,0.4-0.3,0.5-0.5,0.5s-0.5-0.3-0.5-0.5v-0.2h-0.8c-0.1,0-0.2,0-0.3-0.1c-0.2-0.2-0.4-0.3-0.4-0.4l-0.4-0.1c1.3,2.2,3.4,4.5,3.9,5
		L264.2,171z"/>
	<path d="M257.4,190.5c0.5,0.5,1.3,1,2,1.3l2.3-5.6L257.4,190.5z"/>
	<path d="M262.6,192.7v-6.1l-2.3,5.6C261,192.6,261.8,192.7,262.6,192.7z"/>
	<path d="M228,144.1v11.1h9.5v-11.1H228z M237.1,154.3v0.5h-8.8v-0.5h0.1v-1.5c0-0.5,0.3-1.1,0.4-1.6c0.1-0.2,0.1-0.4,0.3-0.4
		c0.1,0.1,0.2,0.5,0.3,0.7c0,0.2,0.1,0.4,0.1,0.5c0.1-0.2,0.1-0.3,0.2-0.3c0.1,0,0.1,0.1,0.1,0.1l0.1-0.1h0.1h0.1h0.2
		c0.1,0,0.2,0.2,0.2,0.3h2.9V152c0-0.1,0-0.1,0.1-0.2h0.4h0.3c0.2,0.1,0.3,0.6,0.3,1.3h0.8v1.3h0.9v-1.2c-0.2-0.2-0.4-0.4-0.4-0.7
		c0-0.3,0.1-0.5,0.4-0.7v-0.7c-0.4,0-0.8-0.4-0.8-0.9c0-0.5,0.4-0.9,0.9-0.9c0.5,0,0.9,0.4,0.9,0.9c0,0.3-0.2,0.5-0.4,0.7v0.7
		c0.4,0.1,0.8,0.4,0.8,0.9c0,0.4-0.4,0.9-0.8,0.8v1H237.1z"/>
	<path d="M264.2,184.1c0-0.6-0.5-1.1-1.1-1.1c-0.6,0-1.1,0.5-1.1,1.1c0,0.4,0.4,0.9,0.8,1c0.1,0,0.2,0,0.3,0.1
		C263.8,185.2,264.2,184.7,264.2,184.1z M263.2,184.5c-0.2,0-0.4-0.2-0.4-0.4c0-0.2,0.1-0.3,0.3-0.4c-0.1,0.1-0.1,0.2-0.1,0.3
		s0.1,0.3,0.3,0.3c0,0,0.1,0,0.2-0.1c0.1,0,0,0.1,0.1,0.1C263.4,184.4,263.4,184.5,263.2,184.5z"/>
	<path d="M265.8,184.7c2.2,0.9,4.1,1.7,5.5,2.2c0.3-0.7,0.4-1.5,0.4-2.3h-5.5C266.1,184.7,265.9,184.7,265.8,184.7z"/>
	<path d="M269.5,189.9c0.5-0.6,1-1.3,1.3-2.1l-5.6-2.3L269.5,189.9z"/>
	<path d="M266.8,191.9c0.7-0.4,1.4-0.8,2-1.3l-4.3-4.4C265.4,188.4,266.3,190.4,266.8,191.9z"/>
	<path d="M269.3,182.4c0.9-0.3,1.4-0.5,1.6-0.7c0.1,0,0.1-0.1,0.2-0.4l-3.4,1.4C268.3,182.6,268.8,182.4,269.3,182.4z"/>
	<path d="M235.8,161.1l-0.2,0.2c-0.1,0.1-0.3,0.1-0.4,0c0,0-0.1,0-0.1-0.2H234c-0.2,0.5-0.4,1-0.8,1.3h2.9l0.3-1.3H235.8z"/>
	<path d="M232.5,161.7L232.5,161.7c0.3-0.2,0.4-0.4,0.5-0.7h-1.2C232.1,161.4,232.3,161.7,232.5,161.7z"/>
	<path d="M231.4,161.1L231.4,161.1l0.3,1.2c0.1-0.1,0.1-0.1,0.2-0.1c0-0.1,0-0.3-0.2-0.5L231.4,161.1z"/>
	<path d="M235.2,159.2c-0.4,0.2-0.8,0.3-1.2,0.4v0.3c0.4,0,0.7-0.1,1.1-0.1C235.1,159.6,235.2,159.3,235.2,159.2z"/>
	<polygon points="236.6,162.5 236.6,161.4 236.4,162.5 	"/>
	<path d="M227.7,162.7c0.1,0.1,0.2,0.2,0.3,0.4h9.9c0.1-0.2,0.2-0.3,0.3-0.4V156h-10.4V162.7z M228,162.6h1
		c-0.5-0.6-0.9-1.3-0.9-2.2c0-1.7,1.3-3,3-3c1.4,0,2.6,0.9,3,2.2c0.8-0.2,1.7-0.5,2.8-1v-0.1c0-0.2,0.3-0.4,0.1-0.6
		c-0.1,0-0.1,0.1-0.2,0.2c-0.1,0.1,0.1,0.1,0,0.3c-0.2,0-0.3,0.2-0.4,0c-0.2-0.2-0.1-0.2,0.1-0.3c0.2-0.2,0.3-0.3,0.4-0.4
		c-0.1-0.1-0.1-0.2,0-0.3c0-0.1,0.1-0.1,0.1-0.1c0.2,0,0.3-0.1,0.4,0c0.1,0.1,0.1,0.2,0.1,0.3v0.1l0.3,0.3c0.1,0,0.2,0,0.3,0.3v0.3
		h-0.1c-0.1,0-0.2,0-0.2-0.1c0,0,0.1-0.1,0-0.2l-0.1-0.1h-0.2v0.4c0,0,0.1,0,0.1,0.1v0.2v0.8h0.4v1.9h-0.1l0.1,0.3v1.3H228V162.6z"
		/>
	<path d="M231.4,160.5c0.1-0.1,0.1-0.2,0.1-0.3c-0.1-0.2-0.3-0.4-0.4-0.4c-0.2,0-0.4,0.1-0.5,0.3c0,0,0,0,0,0v0.2c0,0,0,0.1,0,0.2
		c0,0,0,0.1,0.1,0.1v-0.3c0-0.1,0.1-0.2,0.2-0.3v0.2c0.1,0.1,0.1,0.2,0.2,0.2L231.4,160.5L231.4,160.5c-0.3,0.1-0.4,0.1-0.5,0.1
		l0.2,0.1h0.2C231.4,160.7,231.4,160.6,231.4,160.5z"/>
	<path d="M235.8,159.2h0.9v-0.5c-0.4,0.1-0.7,0.3-1,0.4C235.7,159,235.8,159.1,235.8,159.2z"/>
	<path d="M230.5,160.1c-0.1-0.1-0.2-0.1-0.3-0.2c-0.3-0.2-0.8-0.6-1.1-0.6h-0.1c-0.1,0.3-0.2,0.6-0.2,0.9c0,0.2,0,0.4,0.2,0.7h1.3
		l0.3-0.3c0,0-0.1-0.1-0.1-0.2C230.5,160.4,230.5,160.2,230.5,160.1z"/>
	<path d="M235.1,160c-0.4,0.1-0.6,0.1-1,0.1c0,0.3-0.1,0.4-0.1,0.6h1.1V160z"/>
	<path d="M231.5,159.8c0.4,0,0.9,0,1.6-0.2c0.1,0,0.1-0.1,0.1-0.1c-0.2-0.5-0.6-1-1.2-1.3l-0.1,0.1c-0.1,0.1-0.2,0.3-0.3,0.4
		C231.5,159,231.4,159.4,231.5,159.8C231.4,159.8,231.5,159.8,231.5,159.8z"/>
	<path d="M232.9,160.1c-0.4,0-0.8,0.1-1.1,0.2c0,0.1-0.1,0.3-0.2,0.4c0,0.1,0,0.1,0.1,0.2h1.5v0.1c0.1-0.3,0.1-0.4,0.1-0.7
		C233.3,160.1,233.1,160.1,232.9,160.1L232.9,160.1z"/>
	<path d="M230.6,159.8c0.1-0.1,0.3-0.2,0.4-0.2c0.1-0.1,0.1-0.2,0.1-0.3c0-0.2,0.2-0.7,0.2-1c0-0.2,0-0.3-0.1-0.3h-0.1l-0.1-0.1
		c-0.6,0-1.2,0.4-1.5,0.7v0.1c0,0.1,0.1,0.2,0.3,0.4C230.1,159.4,230.5,159.7,230.6,159.8z"/>
	<path d="M229.8,161.8L229.8,161.8c0.1,0.1,0.1,0.1,0.1,0.2c0.2,0.1,0.3,0.1,0.4,0.2l0.3-1.2h-0.1
		C230.2,161.3,229.8,161.6,229.8,161.8z"/>
	<path d="M229.9,161.1h-0.8c0.1,0.1,0.1,0.2,0.2,0.3C229.4,161.4,229.6,161.4,229.9,161.1C229.8,161.1,229.9,161.1,229.9,161.1z"/>
	<path d="M263.6,192.7c0.8-0.1,1.6-0.3,2.3-0.4l-2.3-5.7V192.7z"/>
	<path d="M254.8,182.1l1.5-0.1l-1.4-0.1C254.8,182,254.8,182,254.8,182.1z"/>
	<polygon points="200.6,175.8 202.5,175.8 202.7,175.4 200.6,175.4 	"/>
	<polygon points="199.7,174.1 197.1,174.1 197.3,174.6 199.7,174.6 	"/>
	<path d="M205,174.1h-0.9l-0.2,0.4h1.8l-0.3-0.2C205.4,174.3,205.2,174.2,205,174.1z"/>
	<path d="M192.9,183.2h-2.6c0.1,1,0.2,1.9,0.4,2.8l2.3-1C193.1,184.4,193,183.8,192.9,183.2z"/>
	<polygon points="199.7,175.8 199.7,175.4 197.7,175.4 197.8,175.8 	"/>
	<polygon points="203.4,175.8 206.3,175.8 206.7,175.4 203.6,175.4 	"/>
	<polygon points="194,175.8 196.9,175.8 196.7,175.4 193.4,175.4 	"/>
	<path d="M195.1,174.1l-0.2,0.1c-0.1,0.1-0.2,0.1-0.3,0.2l-0.3,0.2h1.9l-0.2-0.4H195.1z"/>
	<path d="M208.1,174.2l0.4,0.4h17.7v-7h-33.9v6.3c0.1-0.1,0.3-0.3,0.4-0.4v-5.4h32.9v6H208.1z"/>
	<path d="M306.5,194.4c0.8,0,1-0.1,1.3-0.4c0.4-0.3,0.5-0.6,0.5-1.1l0.4-4.7c0-0.2,0-0.4-0.1-0.5c0-0.4-0.1-0.6-0.2-0.8l-0.3-0.3
		c-0.3-0.3-0.6-0.4-1.1-0.4s-0.8,0.1-1.1,0.3l-0.3,0.3c-0.2,0.2-0.3,0.4-0.4,0.7c-0.1,0.2-0.1,0.4-0.1,0.5l-0.4,4.7
		c-0.1,0.4,0.1,0.8,0.4,1.2C305.6,194.1,305.8,194.4,306.5,194.4z"/>
	<path d="M306.2,184.4c0.2,0.2,0.6,0.3,1,0.4c0.5,0.1,0.9,0,1.1-0.2c0.2-0.1,0.2-0.1,0.3-0.2c0.4-0.3,0.5-0.8,0.5-1.2l0.1-3.1
		c0.1-0.4-0.1-0.8-0.4-1.2c-0.3-0.3-0.8-0.5-1.2-0.5c-0.4,0-0.9,0.1-1.3,0.4s-0.5,0.6-0.5,1.1l-0.3,3c0,0.4,0,0.9,0.4,1.3
		L306.2,184.4z"/>
	<path d="M296,183.8c0.2,0.2,0.6,0.3,1,0.4c0.5,0.1,0.9,0,1.1-0.2c0.1-0.1,0.2-0.1,0.3-0.2c0.4-0.4,0.4-0.9,0.4-1.3l0.1-3
		c0-0.4-0.2-0.8-0.4-1.2c-0.3-0.3-0.8-0.5-1.2-0.5c-0.4-0.1-0.9,0.1-1.2,0.4c-0.4,0.3-0.5,0.6-0.5,1.1l-0.2,3c0,0.4,0,0.9,0.4,1.3
		L296,183.8z"/>
	<path d="M192.4,179.9l-1.4-0.5h-0.2c-0.3,0.9-0.4,1.8-0.5,2.7h2.5C192.6,181.4,192.5,180.6,192.4,179.9z"/>
	<path d="M189.8,176c-0.3,0.2-0.4,0.4-0.4,0.7v0.2c0.1,0.2,0.1,0.4,0.2,0.6c0.4-0.7,0.8-1.3,1.3-2C190.4,175.6,190,175.8,189.8,176z
		"/>
	<path d="M296.5,193.6c0.8,0,0.9-0.1,1.2-0.4c0.4-0.3,0.5-0.6,0.5-1.1l0.3-4.7v-0.5c0-0.4-0.1-0.6-0.3-0.8l-0.3-0.3
		c-0.3-0.3-0.6-0.4-1.1-0.4c-0.4,0-0.8,0.1-1.1,0.3c-0.1,0.1-0.1,0.2-0.3,0.3c-0.2,0.2-0.3,0.4-0.4,0.7c-0.1,0.2-0.1,0.4-0.1,0.5
		l-0.3,4.7c0,0.4,0.2,0.8,0.4,1.2C295.5,193.4,295.8,193.6,296.5,193.6z"/>
	<polygon points="203.2,174.1 200.6,174.1 200.6,174.6 203,174.6 	"/>
	<path d="M254.6,184.6c0.1,0.8,0.2,1.6,0.4,2.3l5.6-2.3H254.6z"/>
	<path d="M195.7,185l-4.5,1.9c0.4,0.8,1,1.6,1.5,2.2l4.1-4.1H195.7z"/>
	<path d="M257.8,175.4c0.9-0.5,1.9-0.9,3-1.2c-1.1-0.2-1.9-0.5-2.2-0.9L257.8,175.4z"/>
	<path d="M256.7,178.9C256.7,179,256.6,179,256.7,178.9l-0.4,0.1c-0.3,0.4-0.5,0.9-0.8,1.3l1.9,0.7l2.4,0.3l-2.9-2.9L256.7,178.9z"
		/>
	<path d="M242.1,182.5L242.1,182.5l10.8-0.4c0.1-0.2,0.1-0.4,0.2-0.7l-8-0.7C242.4,181.7,242.1,182.5,242.1,182.5z"/>
	<path d="M262.3,180.7v-5.1c-0.7,0.1-1.3,0.3-2,0.4l0.5,1.2C261.3,178.2,261.7,179.5,262.3,180.7z"/>
	<path d="M261.1,181.5h0.4c-0.8-2-1.5-3.8-2.1-5c-0.7,0.4-1.3,0.8-2,1.3L261.1,181.5z"/>
	<path d="M253.3,180.9c0.2-0.6,0.4-1.3,0.8-1.8c-3.1,0.4-5.4,0.7-7.1,1.2L253.3,180.9z"/>
	<path d="M209.3,185.9c0.1-0.4,0.2-0.6,0.3-0.9h-2.3L209.3,185.9z"/>
	<path d="M201.1,183.2c0.1-0.2,0.2-0.4,0.2-0.6s-0.1-0.4-0.2-0.6l-0.3-0.3c-0.2-0.1-0.4-0.2-0.6-0.2c-0.6,0-1.2,0.5-1.2,1.2v0.1v0.2
		c0,0.1,0,0.2,0.1,0.3c0.1,0.2,0.2,0.3,0.3,0.4c0.3,0.1,0.4,0.3,0.7,0.2C200.5,183.8,200.9,183.5,201.1,183.2z M200.3,182.7
		c0,0.3-0.2,0.4-0.4,0.4c-0.3,0-0.4-0.2-0.4-0.4c0-0.2,0.1-0.4,0.3-0.4c0,0.1-0.1,0.2-0.1,0.3c0,0.2,0.2,0.4,0.4,0.4
		C200.2,182.8,200.3,182.8,200.3,182.7C200.4,182.7,200.4,182.8,200.3,182.7z"/>
	<path d="M198.5,185l-4.9,4.9c0.7,0.6,1.4,1.2,2.3,1.5L198.5,185L198.5,185z"/>
	<path d="M199.5,192.5v-7.1l-2.7,6.5C197.7,192.2,198.6,192.4,199.5,192.5z"/>
	<path d="M203.3,184.9c1.6,1.7,3,3.1,4.1,4.2c0.5-0.6,1.1-1.4,1.5-2.3l-4.5-1.9H203.3z"/>
	<path d="M200.6,192.5c0.9-0.1,1.9-0.3,2.7-0.5l-2.7-6.6V192.5z"/>
	<path d="M204.3,191.5c0.9-0.4,1.6-0.9,2.2-1.6l-4.9-4.9L204.3,191.5z"/>
	<path d="M255.4,187.8c0.4,0.7,0.8,1.4,1.3,2l4.3-4.3L255.4,187.8z"/>
	<path d="M190.8,166h0.4l-0.1,0.1c-0.1,0.1-0.3,0.1-0.4,0.1l0.2,0.1c0.5-0.1,0.5,0,0.3,0h0.8v0.5c0,0.2,0.2,0.3,0.4,0.3
		s0.4-0.1,0.4-0.3v-0.5h15v0.5c0,0.2,0.2,0.3,0.4,0.3c0.2,0,0.4-0.1,0.4-0.3v-0.5h14.6v0.5c0,0.2,0.2,0.3,0.4,0.3
		c0.2,0,0.4-0.1,0.4-0.3v-0.5h0.9V166c0-0.1,0.1-0.2,0.2-0.3h-0.1v0.1h-33.9c0,0,0,0.1-0.1,0.1C190.6,166,190.7,166,190.8,166z"/>
	<path d="M190.8,166.3L190.8,166.3C190.7,166.3,190.7,166.3,190.8,166.3L190.8,166.3z"/>
	<path d="M190.6,166.2v-0.4v-0.1h0.1c0,0,0-0.1,0-0.1h-0.2C190.4,165.9,190.4,166.1,190.6,166.2z"/>
	<path d="M213.8,215.2c-0.4-0.4-1-0.6-1.5-0.6h-3l0.2,18.4h3c0.6,0,1.2-0.3,1.5-0.6c0.4-0.4,0.6-1,0.6-1.6l-0.2-14
		C214.4,216,214.1,215.5,213.8,215.2z"/>
	<path d="M384.2,290.5c-1.7,0-3,1.3-3,3c0,1.8,1.3,3,3,3s3-1.3,3-3C387.2,291.8,385.9,290.5,384.2,290.5z M385,295.6l-0.7-1.6h-0.4
		v1.6h-0.9v-4.1h1.7c0.8,0,1.3,0.6,1.3,1.3c0,0.5-0.4,0.9-0.8,1.1l0.9,1.7H385z"/>
	<path d="M200.3,146.6v11.6h17.9v-11.6H200.3z M218.2,149.8h-13.1v4.5l0.1,0.1c0-0.1,0.1-0.1,0.1-0.1c0-0.1,0.1-0.1,0.1-0.1h0.2
		c0.2,0,0.3,0.1,0.4,0.2c0,0,0.2-0.1,0.3-0.1c0.1,0,0.2,0.1,0.3,0.2c0.1-0.1,0.2-0.2,0.4-0.2h0.2c0,0,0.1,0,0.2,0.1l0.1,0.1
		c0.1-0.1,0.2-0.2,0.4-0.2h0.2c0,0,0,0.1,0.1,0.1h0.1c0.1,0,0.1,0.1,0.1,0.1l0.1-0.1l0.1-0.1h0.2c0.2,0,0.3,0.1,0.4,0.2
		c0-0.1,0.1-0.1,0.1-0.1c0-0.1,0.1-0.1,0.1-0.1h0.2c0.2,0,0.3,0.1,0.4,0.2c0-0.1,0.2-0.2,0.3-0.2s0.2,0.1,0.3,0.2
		c0.1-0.1,0.2-0.2,0.4-0.2h0.2c0,0,0.1,0,0.2,0.1l0.1,0.1c0.1-0.1,0.2-0.2,0.4-0.2h0.2l0.2,0.2l0.1-0.1l0.1-0.1h0.2
		c0.2,0,0.3,0.1,0.4,0.2c0-0.1,0.1-0.1,0.1-0.1c0-0.1,0.1-0.1,0.1-0.1h0.2c0.2,0,0.3,0.1,0.4,0.2c0,0,0.2-0.1,0.3-0.1
		c0.1,0,0.2,0.1,0.3,0.2c0.1-0.1,0.2-0.2,0.4-0.2h0.2c0,0,0.1,0,0.2,0.1l0.1,0.1c0.1-0.1,0.2-0.2,0.4-0.2h0.2c0,0,0,0.1,0.1,0.1
		l0.1,0.1c0.1,0,0.1,0.1,0.1,0.1l0.1-0.1l0.1-0.1h0.2c0.2,0,0.3,0.1,0.4,0.2c0-0.1,0.1-0.1,0.1-0.1c0-0.1,0.1-0.1,0.1-0.1h0.2
		c0.2,0,0.3,0.1,0.4,0.2c0-0.1,0.2-0.2,0.3-0.2c0.1,0,0.2,0.1,0.3,0.2c0.1-0.1,0.2-0.2,0.4-0.2h0.2c0,0,0.1,0,0.2,0.1l0.1,0.1
		c0.1,0,0.1-0.1,0.2-0.1v3h-13.8v-1.6h-0.2c-0.1,0-0.2,0-0.3-0.1c-0.1-0.1-0.1-0.2-0.1-0.3v-0.4c0-0.2,0.1-0.3,0.2-0.4h0.3
		c0.1,0,0.1-0.1,0.1-0.1l0.1-0.1l0.1-0.1h0.1v-4.3h-0.4c-0.1,0-0.2,0-0.3-0.1c-0.1-0.1-0.1-0.2-0.1-0.3v-0.4c0-0.2,0.1-0.3,0.2-0.4
		h0.3c0.1,0,0.1-0.1,0.1-0.1s0-0.1,0.1-0.1l0.1-0.1h0.2c0.2,0,0.3,0.1,0.4,0.2c0-0.1,0.1-0.1,0.1-0.1c0-0.1,0.1-0.1,0.1-0.1h0.2
		c0.2,0,0.3,0.1,0.4,0.2c0-0.1,0.2-0.2,0.3-0.2c0.1,0,0.2,0.1,0.3,0.2c0.1-0.1,0.2-0.2,0.4-0.2h0.2c0,0,0.1,0,0.2,0.1l0.1,0.1
		c0.1-0.1,0.2-0.2,0.4-0.2h0.2c0,0,0,0.1,0.1,0.1h0.1c0.1,0,0.1,0.1,0.1,0.1l0.1-0.1l0.1-0.1h0.2c0.2,0,0.3,0.1,0.4,0.2
		c0-0.1,0.1-0.1,0.1-0.1c0-0.1,0.1-0.1,0.1-0.1h0.2c0.2,0,0.3,0.1,0.4,0.2c0,0,0.2-0.1,0.3-0.1s0.2,0.1,0.3,0.2
		c0.1-0.1,0.2-0.2,0.4-0.2h0.2c0,0,0.1,0,0.2,0.1l0.1,0.1c0.1-0.1,0.2-0.2,0.4-0.2h0.2l0.2,0.2l0.1-0.1l0.1-0.1h0.2
		c0.2,0,0.3,0.1,0.4,0.2c0-0.1,0.1-0.1,0.1-0.1c0-0.1,0.1-0.1,0.1-0.1h0.2c0.2,0,0.3,0.1,0.4,0.2c0,0,0.2-0.1,0.3-0.1
		c0.1,0,0.2,0.1,0.3,0.2c0.1-0.1,0.2-0.2,0.4-0.2h0.2c0,0,0.1,0,0.2,0.1l0.1,0.1c0.1-0.1,0.2-0.2,0.4-0.2h0.2c0,0,0,0.1,0.1,0.1
		l0.1,0.1c0.1,0,0.1,0.1,0.1,0.1l0.1-0.1l0.1-0.1h0.2c0.2,0,0.3,0.1,0.4,0.2c0-0.1,0.1-0.1,0.1-0.1c0-0.1,0.1-0.1,0.1-0.1h0.2
		c0.2,0,0.3,0.1,0.4,0.2c0,0,0.2-0.1,0.3-0.1c0.1,0,0.2,0.1,0.3,0.2c0.1-0.1,0.2-0.2,0.4-0.2h0.2l0.2,0.2c0.1,0,0.1-0.1,0.5-0.1
		V149.8z"/>
	<path d="M221.7,156.5c-0.1,0.1-0.2,0.1-0.3,0.1h-0.2v1.6h3.1v-11.6h-4.5v11.6h0.4v-3c0.1,0,0.2,0,0.3,0.1l0.1-0.1v-4.4h-0.4v-1.4
		c0.1,0,0.2,0,0.3,0.1c0.1-0.1,0.2-0.2,0.4-0.2h0.2c0,0,0.1,0,0.2,0.1c0.1,0.1,0.1,0.2,0.1,0.2h0.2c0.2,0,0.3,0.2,0.4,0.5v0.4
		c0,0.1,0,0.2-0.1,0.3c-0.1,0.1-0.2,0.1-0.3,0.1h-0.4v4.3c0,0,0.1,0,0.2,0.1c0.1,0.1,0.1,0.2,0.1,0.2h0.2c0.1,0.1,0.2,0.2,0.2,0.4
		v0.4C221.8,156.3,221.8,156.4,221.7,156.5z"/>
	<path d="M224.8,166.1h0.4l-0.1,0.1c-0.1,0.1-0.3,0.1-0.4,0.1l0.2,0.1h0.3c0.2,0,0.3-0.1,0.4-0.3c0.1-0.2,0.1-0.3,0.1-0.4
		c0-0.2-0.2-0.4-0.4-0.4c-0.2,0-0.4,0.1-0.4,0.3v0.3C224.6,166,224.7,166.1,224.8,166.1z"/>
	<path d="M190.3,141.4v-0.3H190C190,141.2,190.2,141.3,190.3,141.4z"/>
	<path d="M188.4,295.7c-1.1,0-2.5,1-4.1,3c-1.4,1.8-2.4,3.3-2.6,4.5c-0.4,2.2,0.2,2.2,0.8,2.2c1.3-0.1,3.3-1.3,4.7-3.5
		c1.3-2,1.8-3.7,1.8-4.8c0-0.7-0.1-1-0.2-1.2C188.7,295.7,188.5,295.7,188.4,295.7z"/>
	<path d="M203,295.7c-1.1,0-2.5,1-4.1,3c-1.4,1.8-2.4,3.3-2.6,4.5c-0.4,2.2,0.2,2.2,0.8,2.2c1.3-0.1,3.3-1.3,4.7-3.5
		c1.3-2,1.8-3.7,1.8-4.8c0-0.7-0.1-1-0.2-1.2C203.3,295.7,203.2,295.7,203,295.7z"/>
	<path d="M230.1,296h-0.2c-0.7,0-2.2,0.8-4.9,4.6c-2.2,3.1-3.3,5.4-3.3,6.6c0.6,0.1,2-0.5,4.9-3.5c2.2-2.2,3.5-3.8,3.9-4.7
		c0.2-0.5,0.4-1.2,0.4-1.9c0-0.3-0.1-0.5-0.3-0.8C230.5,296.3,230.3,296,230.1,296z"/>
	<path d="M173.7,295.5c-0.6,0-1.1,0.4-1.8,1c-0.3,0.3-0.4,0.5-0.9,1.2c-1.8,2.4-2.7,4.6-2.7,6.6c0,0.9,0.1,1.5,0.3,1.9
		c0.2,0.4,0.4,0.4,0.6,0.4c1.2,0,2.4-1.3,3.7-3.6c1.1-2.2,1.7-3.9,1.8-5.1C174.7,296.3,174.4,295.5,173.7,295.5z"/>
	<path d="M162,295.7c-1.1,0-2.5,1-4.1,3c-1.5,1.8-2.4,3.3-2.6,4.5c-0.4,2.2,0.2,2.2,0.8,2.2c1.3-0.1,3.3-1.3,4.7-3.5
		c1.2-2,1.7-3.7,1.8-4.8c0-0.7-0.1-1-0.2-1.2C162.3,295.7,162.2,295.7,162,295.7z"/>
	<path d="M384.4,292.2h-0.6v1.1h0.6c0.4,0,0.5-0.3,0.5-0.5S384.8,292.2,384.4,292.2z"/>
	<path d="M213.9,298.4c1-1.3,1.6-3.1,1.5-3.3c-0.1-0.3-0.7,0.2-1,0.5c-2.5,3-3.3,4-3.5,4.6h0.4C212.1,300.2,212.9,299.6,213.9,298.4
		z"/>
	<path d="M346.6,224.1l-2.9-0.4l-3,18.1l2.9,0.4c0.6,0.1,1.2,0,1.6-0.4c0.4-0.4,0.8-0.8,0.9-1.4l2.2-13.8c0.1-0.6,0-1.2-0.4-1.6
		C347.7,224.6,347.2,224.2,346.6,224.1z"/>
	<path d="M269.7,295.5c-0.6,0-1.1,0.4-1.8,1c-0.3,0.3-0.4,0.5-0.9,1.2c-1.8,2.4-2.7,4.6-2.7,6.6c0,0.9,0.1,1.5,0.3,1.9
		c0.2,0.4,0.4,0.4,0.6,0.4c1.2,0,2.4-1.3,3.7-3.6c1.2-2.2,1.7-3.9,1.8-5.1C270.7,296.3,270.3,295.5,269.7,295.5z"/>
	<path d="M228.8,167.7c0.1,0,0.2,0,0.3,0.1c0.2,0.1,0.3,0.2,0.4,0.4c0.1-0.1,0.4-0.2,0.5-0.1l0.2,0.2c0,0.1,0,0.2,0.1,0.2
		c0.1-0.1,0.2-0.2,0.3-0.2c0.1,0,0.2-0.1,0.3-0.1c0.3-0.1,0.4,0,0.5,0.2v-0.1l0.1-0.1c0.1-0.1,0.2-0.1,0.3-0.1h0.3
		c0.1,0.1,0.2,0.1,0.3,0.1c0.1-0.3,0.3-0.4,0.5-0.5h0.4c0.1,0,0.2,0.1,0.3,0.2c0-0.1,0.1-0.1,0.2-0.1h0.3c0.1,0,0,0,0.1,0.1
		c0,0,0.1,0,0.1,0.1l0.1-0.1c0.1-0.1,0.3-0.1,0.4-0.2c0.4,0,0.6,0.1,0.7,0.4c0.1,0.1,0.2,0,0.3,0s0.1,0,0.2,0.1
		c0.1,0.1,0.1,0.2,0.2,0.3c0,0,0.2-0.1,0.3-0.1c0.1-0.2,0.3-0.3,0.4-0.4h0.4c0.1,0,0.2,0.1,0.3,0.2c0.1-0.1,0.1-0.1,0.2-0.1h0.1
		v-3.4v-0.2h-8.9v3.3C228.8,167.7,228.8,167.7,228.8,167.7z"/>
	<path d="M248.7,151.2c-0.2,0.2-0.3,0.5-0.4,1l2.2-0.6v-1.4c-0.2,0.1-0.4,0.2-0.4,0.2C249.5,150.5,248.8,150.9,248.7,151.2z"/>
	<path d="M252.6,156.8h-1.3v1.8h0.4c0.1,0,0.3,0.1,0.3,0.2c0.1,0,0.1-0.1,0.2-0.1c0-0.1,0.1-0.1,0.2-0.1c0-0.1,0.1-0.1,0.2-0.1
		c0.4,0,0.6,0.1,0.7,0.4c0.1,0.1,0.2,0,0.3,0c0.1,0,0.1,0,0.2,0.1c0.1,0.1,0.1,0.2,0.2,0.3l0.4-0.1c0.2,0,0.3,0,0.4,0.1
		c0.1,0,0.2,0.1,0.2,0.2c0.1,0.1,0.1,0.2,0.1,0.3c0.1-0.1,0.1-0.1,0.2-0.1h0.2c0.1,0,0.2,0,0.3,0.1c0.1,0.1,0.1,0.2,0.1,0.3
		c0.1-0.1,0.2-0.1,0.4,0v-13.4h-12.3v15.2c0-0.1,0.1-0.1,0.2-0.1h0.5c0.2,0,0.1,0,0.2-0.1c0-0.1,0.1-0.2,0.2-0.2
		c0.2-0.1,0.4-0.1,0.5-0.1c0.1-0.4,0.4-0.4,0.7-0.5l0.1-0.3c0-0.1,0.1-0.2,0.2-0.3c0.1-0.2,0.2-0.3,0.4-0.3h0.2
		c0.1,0.1,0.1,0.1,0.2,0.1c0-0.1,0-0.2,0.1-0.3c0.1-0.1,0.2-0.1,0.3-0.1c0.2,0,0.5-0.1,0.6,0c0-0.2,0.2-0.3,0.3-0.4h0.3
		c0.1,0,0.2,0.1,0.3,0.1c0.1-0.2,0.3-0.4,0.4-0.4c0.2-0.1,0.3-0.1,0.4,0c0.1,0,0.1,0.1,0.2,0c0-0.1,0.1-0.2,0.1-0.2
		c0.2-0.2,0.4-0.4,0.6-0.4v-1.8c-0.4-0.1-0.5-0.4-0.5-0.7c0-0.3,0.2-0.5,0.4-0.6H248l-0.1-0.1c-0.1-0.1-0.1-0.1-0.1-0.2l-0.1-0.9
		c-0.1,0-0.1-0.1-0.1-0.1h-0.4c-0.1,0-0.1-0.1-0.2-0.1c-0.1-0.1-0.1-0.1-0.1-0.2l-0.1-0.7h-0.3c-0.1,0-0.2-0.1-0.2-0.2
		s0.1-0.2,0.2-0.2h0.1l0.7-0.3c0-0.7,0.2-1.3,0.5-1.8c0.4-0.5,1.1-0.9,1.7-1.2c0.3-0.2,0.6-0.3,0.8-0.4v-0.4
		c-0.1-0.1-0.2-0.2-0.2-0.4c0-0.4,0.3-0.6,0.6-0.6s0.6,0.3,0.6,0.6c0,0.2-0.1,0.4-0.2,0.4v0.1v2.4l3.8,1.1h0.1l0.3,0.1h0.1
		c0.1,0,0.2,0.1,0.2,0.2s-0.1,0.2-0.2,0.2h-0.3l-0.1,0.7c0,0.1,0,0.2-0.1,0.2c-0.1,0.1-0.1,0.1-0.2,0.1h-0.4l-0.1,1
		c0,0.1-0.1,0.1-0.1,0.2c0,0.1-0.1,0.1-0.1,0.1h-1.5c0.2,0.2,0.4,0.4,0.4,1C253,156.5,252.9,156.7,252.6,156.8z"/>
	<path d="M241.8,169.9h15.9V165h-15.9V169.9z M242.2,165.5h14.9v3.9h-14.9V165.5z"/>
	<path d="M239.3,168.4h0.2c0.1,0,0.1,0,0.2,0.1c0.1,0.1,0.1,0.2,0.2,0.3c-0.1,0,0.4-0.1,0.4-0.1c0.2,0,0.3,0,0.4,0.1v-4.3l-1.3,0.3
		V168.4z"/>
	<path d="M239.1,162.8c0.1,0,0.2,0.2,0.3,0.3l1.3-0.3v-18.6l-1.5-0.2V162.8z"/>
	<path d="M310.9,218.6l-0.7-0.1c-0.6-0.1-1.2,0.1-1.6,0.4c-0.4,0.4-0.7,0.9-0.8,1.4l-4.6,41.1c-0.1,0.6,0.1,1.2,0.4,1.6
		c0.4,0.4,0.9,0.7,1.4,0.8l0.7,0.1c0.6,0.1,1.2-0.1,1.6-0.4c0.4-0.4,0.7-0.9,0.8-1.5l4.7-41c0.1-0.6-0.1-1.2-0.4-1.6
		S311.6,218.6,310.9,218.6z"/>
	<path d="M247.4,134.4c3.3,0,6,0.2,6.9,0.4l0.4-1c-0.1,0-0.3-0.1-0.4-0.1c-0.4-0.1-1-0.1-1.6-0.2c-1.3-0.1-3.1-0.2-5.2-0.2
		c-2.8,0-5.3,0.1-6.5,0.3c-0.4,0-0.6,0.1-0.7,0.1l0.4,1.1C241.3,134.6,244.1,134.4,247.4,134.4z"/>
	<path d="M0,0v448.8h448.8V0H0z M313.8,192.5l1.5-0.3l-0.1,1.2c0,0.4,0.1,0.8,0.4,1.2c0.3,0.3,0.6,0.5,1.1,0.5h0.4
		c0.4,0,0.7-0.1,1-0.4c0.3-0.3,0.4-0.6,0.5-1.1l0.4-5.6c0-0.5-0.1-1-0.4-1.3c0-0.1-0.1-0.2-0.3-0.3c-0.2-0.2-0.5-0.3-0.8-0.3h-0.4
		c-0.3,0-0.5,0-0.7,0.2c-0.1,0.1-0.2,0.1-0.3,0.2c-0.3,0.3-0.4,0.6-0.5,1.2l-1.4-0.5l0.8-9.3l5.7,0.5l-0.1,1.4l-4.3-0.5l-0.6,6.4
		c0,0,0.6-0.4,1-0.5c0.5-0.2,0.9-0.2,1.3-0.2c0.1,0,0.4,0.1,0.5,0.1c0.3,0,0.5,0.1,0.8,0.2c0.4,0.2,0.8,0.5,1,0.9
		c0.2,0.4,0.3,0.8,0.2,1.3l-0.5,6.5c0,0.4-0.1,0.7-0.3,1c-0.2,0.4-0.4,0.6-0.6,0.8c-0.3,0.3-0.5,0.4-0.9,0.5c-0.3,0-0.4,0.1-0.7,0.1
		h-0.3l-1.1-0.1c-0.4,0-0.7-0.1-1-0.3c-0.4-0.2-0.6-0.4-0.8-0.6c-0.3-0.3-0.4-0.5-0.5-0.9c-0.1-0.4-0.1-0.7-0.1-1.1L313.8,192.5z
		 M303.8,188.3c0-0.3,0.1-0.8,0.2-1.3c0-0.4,0.5-1.3,1.1-1.5c-0.6-0.4-0.9-1.3-0.9-1.9V183l0.3-3.2c0-0.4,0.1-0.7,0.3-1
		c0.2-0.4,0.4-0.6,0.6-0.8c0.3-0.3,0.5-0.4,0.9-0.5c0.4-0.2,0.8-0.4,1.6-0.3c0.8,0,1.3,0.3,1.5,0.4c0.4,0.2,0.5,0.4,0.8,0.6
		c0.2,0.3,0.4,0.5,0.6,1c0.1,0.4,0.1,0.7,0.1,1.1l-0.3,3.2c0,0.2-0.1,0.4-0.1,0.6c-0.1,0.5-0.5,1.3-1.2,1.7c0.4,0.4,0.8,1.3,0.8,1.7
		v1.3l-0.4,4.7c0,0.4-0.1,0.7-0.3,1c-0.2,0.4-0.4,0.6-0.6,0.8c-0.3,0.2-0.5,0.4-0.9,0.5c-0.3,0.1-0.6,0.4-1.5,0.3
		c-0.9-0.1-1.3-0.4-1.6-0.5c-0.4-0.2-0.6-0.4-0.8-0.6c-0.3-0.3-0.4-0.5-0.5-0.9s-0.1-0.7-0.1-1.1L303.8,188.3z M293.6,187.4
		c0-0.3,0.1-0.8,0.1-1.3c0-0.4,0.5-1.3,1.1-1.5c-0.6-0.4-0.9-1.3-0.9-1.8v-0.6l0.2-3.2c0-0.4,0.1-0.6,0.3-1c0.2-0.3,0.4-0.5,0.6-0.8
		s0.5-0.4,0.9-0.5s0.8-0.4,1.6-0.3c0.8,0,1.3,0.3,1.5,0.4c0.3,0.2,0.6,0.4,0.8,0.6l0.5,0.8c0.2,0.4,0.2,0.7,0.2,1.1l-0.2,3.2
		c0,0.2-0.1,0.4-0.1,0.6c-0.1,0.5-0.4,1.3-1.1,1.7c0.5,0.4,0.9,1.3,0.9,1.7v1.3l-0.3,4.7c0,0.4-0.1,0.7-0.3,1
		c-0.2,0.3-0.4,0.5-0.6,0.8c-0.3,0.2-0.5,0.4-0.9,0.5c-0.3,0.1-0.6,0.4-1.5,0.3c-0.9-0.1-1.3-0.4-1.6-0.5c-0.4-0.2-0.6-0.4-0.8-0.6
		c-0.3-0.3-0.4-0.5-0.5-0.9c-0.2-0.3-0.2-0.6-0.2-1L293.6,187.4z M293.3,208.8l-0.5,8.2c-0.1,0.8-0.5,1.3-1.3,1.2l-6.5-0.4l-3.7,52
		c-0.1,0.9-0.5,1.3-1.3,1.2l-8.2-0.5c-0.3,0-0.6-0.2-0.8-0.4c-0.3-0.3-0.4-0.5-0.4-1l3.7-52l-6.4-0.4c-0.9-0.1-1.3-0.5-1.2-1.3
		l0.5-8.2c0.1-0.9,0.5-1.3,1.3-1.2l23.6,1.7C292.9,207.4,293.3,207.9,293.3,208.8z M286,179.3c0.5-0.2,0.9-0.4,1.3-0.7
		c0.4-0.3,0.7-0.6,1.1-1.1c0.3-0.4,0.4-0.7,0.7-1.3l1.1,0.1l-0.8,18l-1.5-0.1l0.6-15l-1.5,1.1c-0.2,0.2-0.4,0.3-0.8,0.4
		c-0.1,0-0.1,0.1-0.2,0.1L286,179.3z M186,165.1h4.3v-21c-0.1,0.1-0.2,0.1-0.3,0.1c-0.2,0-0.4-0.1-0.4-0.3c-0.1-0.1-0.1-0.2-0.1-0.3
		c0-0.2,0.1-0.4,0.3-0.4c0.1,0,0.2-0.2,0.2-0.3v-0.2c-0.2-0.4-0.4-0.6-0.7-0.6c-0.1,0-0.3,0-0.4,0.2c-0.1,0.1-0.2,0.1-0.3,0.1
		c-0.2,0-0.4-0.1-0.4-0.3c-0.1-0.1-0.1-0.2-0.1-0.3c0-0.2,0-0.4,0.2-0.4c0.2-0.1,0.3-0.1,0.4-0.2h-2.3c0,0,2-1.5,4.3-1.7v-0.4h3
		c0.8-0.4,2.2-1.2,3.9-1.2l-0.6-1.2h-0.5c-0.2,0-0.3-0.1-0.3-0.3c0-0.2,0.1-0.3,0.3-0.3h1.1v-0.9h17.9l-1.8-2.3h-2.8
		c-0.4,0-0.6-0.3-0.6-0.6c0-0.4,0.3-0.6,0.6-0.6h0.3v-0.5h21.5l2.4,0.3l2.8,3.9h2.6V135l-0.4-1.3v-0.9c0.1-0.2,1.3-0.4,3-0.4
		l4.2-1.3v-0.5c0-0.2,0.1-0.3,0.3-0.3s0.3,0.1,0.3,0.3v0.4l4.4,1.3c1.8,0.2,3,0.3,3,0.4v0.9l-0.4,1.2v0.5c1,0.1,1.8,0.3,2.4,0.4v0.8
		c0.1,0,0.3,0.1,0.4,0.1c0.2,0.1,0.2,0.2,0.2,0.4c-0.1,0.1-0.2,0.2-0.3,0.2H257l-0.4,0.8c0.1,0,0.2,0.1,0.3,0.1l12.7,0.4
		c1.1,0,2.2,0.4,3,0.7h2.2c2.5-0.1,4.7,1.7,4.7,1.7H271c0.3,0.1,0.4,0.2,0.7,0.4c0.2,0.2,0.3,0.4,0.3,0.5c0,0.1,0,0.3-0.1,0.4
		c-0.2,0.2-0.4,0.3-0.5,0.3c-0.1,0-0.3,0-0.4-0.1c-0.1-0.1-0.5-0.2-0.8-0.3c-0.2-0.1-0.4-0.1-0.4-0.1c-5.6,1.3-7.4,5.2-8,6.6
		c-0.2,0.4-0.3,1.6-0.4,2.8c-0.1,1.2-0.1,2.3-0.1,3v0.5c0,0.4-0.3,0.6-0.6,0.6h-0.1v3.1c0,0.2,0.1,0.3,0.1,0.4
		c0,0.4,0.2,0.8,0.4,1.3c0.4,0.9,1.2,1.7,2.8,1.7h4.2c0.1-0.1,0.2-0.1,0.4-0.1c0.4,0,0.7,0.4,0.7,0.7c0,0.4-0.4,0.7-0.7,0.7
		c-0.1,0-0.2-0.1-0.3-0.1h-0.2v0.4c0.4,0,1,0.3,1,1.1v0.5c0.1,0.1,0.2,0.2,0.2,0.4c0,0.3-0.2,0.5-0.4,0.5v5.7h4.4l4-3.1
		c0.2-0.2,0.5-0.2,0.7,0.1c0.2,0.2,0.2,0.5-0.1,0.7l-4.1,3.3c-0.1,0.1-0.3,0.1-0.4,0.1h-5.6c-0.2,0.4-1.1,0.9-2.2,1.1
		c2.9,0.6,5.3,2.5,6.7,5c0.5-1.3,1.5-2.6,3.3-3.4c1.3-0.5,2.9-0.9,5-0.9c0.4,0,0.6,0.3,0.7,0.9c0,0.4-0.4,0.7-0.7,0.7
		c-3,0-4.7,0.6-5.6,1.5c-1,0.8-1.4,1.9-1.8,3v0.1c0.4,1.1,0.5,2.2,0.5,3.3c0,5.6-4.6,10.3-10.3,10.3c-5.6,0-10.3-4.6-10.3-10.3
		c0-0.4,0-0.9,0.1-1.3l-10.8,0.4v1.5h-6c-0.1,0.4-0.4,0.7-0.8,0.7c-0.4,0-0.7-0.4-0.8-0.7h-22.9c-1.1,5.5-5.8,9.7-11.7,9.7
		c-6.5,0-11.8-5.3-11.8-11.8c0-1.5,0.3-3,0.8-4.3c-0.4-0.4-0.7-1-0.7-1.7v-0.3c0-0.6,0.4-1.1,0.8-1.4c0.4-0.4,0.9-0.5,1.3-0.7
		c0.4-0.1,0.6-0.2,0.9-0.2v-7.6c-0.2,0.1-0.3,0.1-0.4,0.1c-0.5,0-0.9-0.4-0.9-0.9v-0.2H186V165.1z M254.8,229c0.9,0,1.3,0.4,1.3,1.3
		l-0.3,8.2c0,0.9-0.4,1.3-1.3,1.3l-9.1-0.3l-0.5,18.7l10.5,0.3c1,0.1,1.3,0.5,1.3,1.3l-0.3,8.2c0,0.9-0.4,1.3-1.3,1.3l-19.9-0.5
		c-0.9,0-1.3-0.4-1.3-1.3l1.8-61.6c0-0.9,0.4-1.3,1.3-1.3l19.9,0.5c0.9,0,1.3,0.4,1.3,1.3l-0.3,8.2c0,0.9-0.4,1.3-1.3,1.3l-10.5-0.3
		l-0.4,13.2L254.8,229z M209.8,267.8c-0.1,0.6-0.5,0.9-1.2,0.9l-8.2,0.1c-0.9,0-1.3-0.4-1.3-1.3l-0.8-61.6c0-0.9,0.4-1.3,1.3-1.3
		l13.7-0.2c1.6,0,3,0.3,4.5,0.9c1.4,0.6,2.7,1.4,3.7,2.4c1.1,1,1.9,2.2,2.5,3.6c0.6,1.4,1,2.9,1,4.5l0.2,15c0,2.2-0.5,4.3-1.6,6.1
		c-1.2,1.8-2.6,3.2-4.5,4.2l8.5,26.2c0.2,0.9-0.1,1.3-0.9,1.3l-8.3,0.1c-0.4,0-0.7-0.1-1.1-0.4s-0.5-0.5-0.7-0.9l-7-22.3
		L209.8,267.8z M177.9,176.4l0.1,1.8l-4.2,0.2l0.2,5.9l3.8-0.2l0.1,1.8l-3.8,0.2l0.3,6.5l4.2-0.2l0.1,1.7l-6,0.3l-0.7-17.7
		L177.9,176.4z M160,178.9c0.2-0.4,0.4-0.8,0.6-1.1s0.6-0.5,1-0.7s0.7-0.3,1.2-0.3l1.3-0.1h0.3c0.4,0,0.7,0.1,1,0.2
		c0.4,0.2,0.8,0.4,1.1,0.6c0.3,0.3,0.5,0.6,0.7,1s0.3,0.7,0.3,1.2l0.1,1.6l-1.8,0.4l-0.1-1.7c0-0.4-0.3-0.9-0.6-1.3
		c-0.3-0.3-0.7-0.4-1.2-0.4h-0.4c-0.4,0-0.9,0.3-1.3,0.6c-0.3,0.4-0.4,0.8-0.4,1.3l0.6,11.7c0.1,0.4,0.3,0.9,0.6,1.3
		c0.4,0.3,0.7,0.4,1.2,0.4h0.4c0.4-0.1,0.9-0.3,1.3-0.6c0.3-0.4,0.4-0.8,0.4-1.3l-0.2-3.1c0,0,1.8,0.1,1.8,0.1l0.2,3.1
		c0,0.4,0,0.9-0.2,1.3c-0.2,0.4-0.4,0.8-0.6,1.1s-0.6,0.5-1,0.7c-0.4,0.2-0.7,0.3-1.2,0.3l-1.3,0.1h-0.3c-0.4,0-0.7-0.1-1-0.2
		c-0.4-0.2-0.8-0.4-1.1-0.6s-0.5-0.6-0.7-1c-0.2-0.4-0.3-0.7-0.3-1.2l-0.6-12C159.8,179.8,159.8,179.3,160,178.9z M128.1,181.4
		c0.1-0.4,0.3-0.8,0.5-1.1c0.2-0.3,0.5-0.5,0.9-0.7c0.4-0.2,0.7-0.4,1.2-0.4h1.5c0.4,0,0.6,0.1,0.9,0.2c0.4,0.2,0.8,0.4,1.1,0.6
		c0.3,0.2,0.5,0.5,0.7,0.9c0.2,0.4,0.4,0.7,0.4,1.2l0.1,0.9l-1.7,0.6l-0.1-1.3c0-0.4-0.3-0.9-0.6-1.3c-0.4-0.3-0.8-0.4-1.2-0.4h-0.5
		c-0.4,0-0.9,0.3-1.3,0.6s-0.5,0.8-0.4,1.3l0.3,1.7c0.1,0.4,0.3,0.8,0.4,1.1c0.2,0.4,0.4,0.4,0.7,0.7l4.7,3c0.4,0.3,0.5,0.7,0.6,1.3
		l0.4,3.5c0.1,0.4,0,0.9-0.1,1.3c-0.2,0.4-0.4,0.8-0.6,1.1c-0.2,0.3-0.5,0.5-0.9,0.7c-0.4,0.2-0.7,0.4-1.2,0.4l-1.3,0.1h-0.4
		c-0.4,0-0.6-0.1-0.9-0.2c-0.4-0.2-0.7-0.4-1.1-0.6c-0.3-0.2-0.5-0.5-0.7-0.9c-0.2-0.4-0.4-0.7-0.4-1.2l-0.3-2.9l1.7-0.6l0.3,3.1
		c0,0.5,0.3,0.9,0.6,1.3c0.4,0.3,0.7,0.4,1.2,0.4h0.4c0.5,0,0.9-0.3,1.3-0.6c0.4-0.4,0.5-0.8,0.4-1.3l-0.1-1.9
		c-0.1-0.4-0.2-1-0.3-1.3c-0.2-0.4-0.4-0.5-0.8-0.8l-4.7-3c-0.4-0.3-0.5-0.5-0.6-1.3l-0.4-3C127.9,182.2,127.9,181.7,128.1,181.4z
		 M89.5,274.3c-0.3,1.5-0.9,2.9-1.7,4.1c-0.8,1.3-1.8,2.3-3,3.1c-1.3,0.9-2.7,1.5-4.2,1.8l-3.4,0.7c-1.5,0.4-3,0.4-4.6,0
		c-1.5-0.3-2.9-0.9-4.1-1.7c-1.3-0.8-2.2-1.8-3.1-3c-0.9-1.3-1.5-2.7-1.8-4.2l-8.7-41.4c-0.4-1.5-0.4-3,0-4.6
		c0.3-1.5,0.9-2.9,1.7-4.1c0.8-1.3,1.8-2.3,3-3.1c1.3-0.9,2.7-1.5,4.2-1.8l3.4-0.7c1.5-0.4,3-0.4,4.6-0.1c1.5,0.3,2.9,0.9,4.1,1.7
		c1.3,0.8,2.3,1.8,3.1,3c0.9,1.3,1.5,2.7,1.8,4.2l0.6,2.9c0.2,0.8-0.1,1.4-0.8,1.9l-7.5,4.7c-0.7,0.4-1.2,0.2-1.3-0.6l-1.3-6.1
		c-0.1-0.6-0.4-1.1-1-1.4c-0.5-0.4-1.1-0.4-1.6-0.3l-0.7,0.2c-0.6,0.1-1.1,0.4-1.4,1s-0.4,1.1-0.3,1.6l8.5,40.5
		c0.1,0.6,0.4,1.1,1,1.4c0.5,0.4,1.1,0.4,1.6,0.3l0.7-0.2c0.6-0.1,1.1-0.4,1.3-1c0.4-0.5,0.4-1.1,0.3-1.6l-3.3-16l-2.1,0.4
		l-2.2-10.2l11.3-2.3c0.8-0.2,1.3,0.2,1.5,1l5.3,25.4C89.8,271.3,89.8,272.8,89.5,274.3z M107.1,276.7c-1,1.3-2.2,2.2-3.8,2.4
		c-1.5,0.3-3-0.1-4.4-1c-1.4-1.1-2.2-2.3-2.4-3.9c-0.3-1.5,0.1-3,1.1-4.4c1-1.3,2.2-2.2,3.8-2.4c1.6-0.3,3,0.1,4.4,1.1
		c1.3,1,2.2,2.2,2.4,3.8C108.4,273.9,108,275.4,107.1,276.7z M141.1,273l-8.1,1.1c-0.8,0.1-1.3-0.3-1.4-1.1l-3.4-26l-6,0.8l3.4,26
		c0.1,0.8-0.3,1.3-1.1,1.4l-8.1,1.1c-0.8,0.1-1.3-0.3-1.4-1.1l-7.9-61c-0.1-0.8,0.3-1.3,1.1-1.4l8.1-1.1c0.8-0.1,1.3,0.3,1.4,1.1
		l3.1,24.5l6-0.8l-3.2-24.6c-0.1-0.8,0.3-1.3,1.1-1.4l8.1-1.1c0.9-0.1,1.3,0.3,1.5,1.2l7.9,61C142.3,272.4,141.9,273,141.1,273z
		 M141.2,196.4l-1.4-17.7l1.8-0.1l1.4,17.7L141.2,196.4z M146.4,178.1l1.3-0.1l6.3,12.4l-0.9-12.7l1.8-0.2l1.1,17.7l-1.3,0.1
		l-6.4-11.8l1,12.3l-1.8,0.1L146.4,178.1z M148.2,267.1c-0.2-1.6,0.3-3,1.3-4.3c1.1-1.3,2.3-2,3.9-2.2c1.6-0.2,3,0.3,4.3,1.3
		c1.3,1.1,2,2.3,2.1,3.9c0.2,1.6-0.3,3-1.3,4.3c-1.1,1.3-2.3,2-3.9,2.2c-1.6,0.2-3-0.3-4.3-1.3C149.1,270,148.4,268.7,148.2,267.1z
		 M162.4,304.1c-1.8,2.5-3.6,3.7-5.3,3.7c-1.4,0-2.2-0.8-2.2-2.2c-0.2,1.5-0.4,3.3-0.4,5.2c-0.1,3.6,1.3,6.4,0.6,7.2
		c-0.7,0.8-1.9,0.4-1.9,0.4c-1.2-0.1-1-5.1-1.1-6.5v-2.1c0-2.6,0.3-7,0.9-13.3c0.2-2,0.8-3,1.9-3c0.7,0,1.2,0.4,1.2,1.3v0.3
		l-0.5,2.6c2.2-2.6,4.3-3.9,6.5-3.9c1,0,1.7,0.3,2.2,1c0.4,0.6,0.6,1.5,0.8,3C165,299.6,164.1,301.7,162.4,304.1z M175.1,304.2
		c-1.6,2.8-3.4,4.3-5.3,4.5h-0.4c-1.1,0-1.9-0.4-2.5-1.3c-0.6-0.8-0.9-1.8-0.9-3c0-1.8,0.4-3.9,1.3-6c1-2.3,3-3.9,4.3-4.5
		c0.8-0.4,1.5-0.5,2-0.5c2.2,0,3.3,1.7,3.4,4.9C177,299.9,176.4,301.8,175.1,304.2z M189,304.1c-1.8,2.5-3.6,3.7-5.3,3.7
		c-1.4,0-2.2-0.8-2.2-2.2c-0.2,1.5-0.4,3.3-0.4,5.2c-0.1,3.6,1.3,6.4,0.6,7.2c-0.7,0.8-1.9,0.4-1.9,0.4c-1.2-0.1-1-5.1-1.1-6.5v-2.1
		c0-2.6,0.3-7,0.9-13.3c0.2-2,0.8-3,1.9-3c0.7,0,1.2,0.4,1.2,1.3v0.3l-0.5,2.6c2.2-2.6,4.3-3.9,6.5-3.9c1,0,1.7,0.3,2.2,1
		c0.4,0.6,0.6,1.5,0.8,3C191.6,299.6,190.7,301.7,189,304.1z M191.4,262.9c-0.5,1.4-1.3,2.7-2.2,3.8c-1,1.1-2.2,2-3.5,2.7
		c-1.3,0.7-2.9,1.1-4.4,1.2l-3.5,0.2c-1.6,0.1-3.1-0.1-4.6-0.6s-2.7-1.3-3.8-2.2c-1.1-1-2-2.2-2.7-3.5c-0.7-1.3-1.1-2.9-1.2-4.4
		l-2.6-42.4c-0.1-1.6,0.1-3.1,0.6-4.6s1.3-2.7,2.2-3.8c1-1.1,2.2-2,3.5-2.7c1.3-0.7,2.9-1.1,4.4-1.2l3.5-0.2
		c1.7-0.1,3.2,0.1,4.7,0.6c1.4,0.5,2.7,1.3,3.8,2.2s2,2.2,2.7,3.5s1.1,2.9,1.2,4.4l0.4,7.3c0.1,0.9-0.4,1.4-1.1,1.7l-8.2,1.8
		c-0.8,0.3-1.2,0-1.3-0.8l-0.5-8.9c0-0.6-0.3-1.1-0.7-1.5c-0.4-0.4-1-0.6-1.6-0.5h-0.7c-0.6,0-1.1,0.3-1.5,0.7s-0.6,1-0.5,1.6
		l2.4,41.3c0,0.6,0.3,1.1,0.7,1.5c0.4,0.4,1,0.6,1.6,0.5h0.7c0.6,0,1.1-0.3,1.5-0.7c0.4-0.4,0.6-1,0.5-1.6l-0.7-12.8
		c-0.1-0.9,0.4-1.2,1.2-1l8.4,0.6c0.8,0.2,1.3,0.7,1.3,1.6l0.6,11.5C192.1,260,191.9,261.5,191.4,262.9z M203.6,304.1
		c-1.8,2.5-3.6,3.7-5.3,3.7c-1.4,0-2.2-0.8-2.2-2.2c-0.3,1.5-0.4,3.3-0.4,5.2c-0.1,3.6,1.3,6.4,0.6,7.2c-0.7,0.8-1.9,0.4-1.9,0.4
		c-1.2-0.1-1-5.1-1.1-6.5v-2.1c0-2.6,0.3-7,0.9-13.3c0.2-2,0.8-3,1.9-3c0.7,0,1.2,0.4,1.2,1.3v0.3l-0.5,2.6c2.2-2.6,4.3-3.9,6.5-3.9
		c1,0,1.7,0.3,2.2,1c0.4,0.6,0.6,1.5,0.8,3C206.2,299.6,205.3,301.7,203.6,304.1z M219.1,301.5c-0.7,2.1-1.9,3.8-3.6,5.1
		c-1.6,1.3-3.2,2-4.8,2c-1.3,0-2.2-0.4-2.9-1.3c-0.6-0.9-0.9-2-0.8-3.3c0.2-1.9,1.2-4.1,3-6.8c2-3,3.9-4.4,5.6-4.4
		c0.7,0,1.3,0.4,1.6,1c0.3,0.4,0.4,0.9,0.4,1.3c0,1.3-0.5,2.7-1.5,4.2c-1.2,1.9-2.7,2.9-4.3,2.9c-0.6,0-1.2-0.1-1.6-0.4
		c-0.1,0.3-0.2,0.6-0.4,1.3c-0.3,1-0.4,1.8-0.4,2.4c0,0.4,0,1,1.4,1c1.1,0,2.4-0.6,3.9-1.9c1.4-1.3,2.8-3.2,3-3.9
		c0.1-0.4,0.6-0.5,1.2-0.4C219.3,300.5,219.3,301.4,219.1,301.5z M233.9,306.7c0,0,0.5-0.8,1.1-0.6c0.5,0.1,0.6,0.7,0.6,1.1
		s-0.2,0.8-0.7,1.1c-0.4,0.3-0.8,0.4-1.2,0.4c-0.7,0-1.7-0.3-2.3-1.7c-0.4-1-0.6-2.5-0.6-4.6v-0.1c-3.8,4.8-6.5,7.2-8.4,7.2h-0.4
		c-1.3,0-2.2-0.8-2.2-2.2c0-1.1,0.5-2.6,1.6-4.7c1.1-2.2,2.4-4.1,3.9-5.6c1.7-1.9,3.4-2.9,4.9-2.9c0.4,0,0.9,0.1,1.3,0.4
		c0.2-1.3,0.5-3,0.9-5c0.5-2.7,1.1-3.9,1.9-3.9c0.3,0,0.6,0.1,0.9,0.4s0.4,0.6,0.4,1c0,0.1,0,0.1-0.4,1.7c-1.4,5-2.2,9.9-2.2,14.6
		C233.1,305.8,233.5,306.7,233.9,306.7z M259.7,296.3c-0.7,0.5-1.3,0.4-2.1-0.4c-0.4-0.4-0.6-0.5-0.9-0.5c-1.3,0-2.7,1.3-4.1,3.9
		c-1.3,2.3-2,4.1-2,5.4c0,1.6,0.7,1.8,1.4,1.8c1.1,0,2.2-0.4,3.4-1.2c1.1-0.7,2-1.7,2.8-2.9c0.2-0.3,0.4-0.4,0.6-0.4
		c0.3,0,0.5,0.2,0.7,0.4c0.2,0.3,0.3,0.5,0.2,0.8c0,0.3-0.4,0.8-2.1,2.5c-1.5,1.4-2,1.8-2.2,1.9c-1.7,0.9-2.2,1-2.4,1h-0.4
		c-0.3,0.1-0.4,0.1-0.4,0.1c-1.3,0-2.4-0.5-3.1-1.5c-0.5-0.8-0.8-1.8-0.8-3c0-1.8,0.8-4,2.4-6.5c1.9-3,3.9-4.5,6.1-4.5
		c0.4,0,1,0.1,1.7,0.4c1.1,0.4,1.6,1,1.6,1.7C260.2,295.7,260,296,259.7,296.3z M271.1,304.2c-1.6,2.8-3.4,4.3-5.3,4.5h-0.4
		c-1.1,0-1.9-0.4-2.5-1.3c-0.6-0.8-0.9-1.8-0.9-3c0-1.8,0.4-3.9,1.3-6c1-2.3,3-3.9,4.3-4.5c0.8-0.4,1.5-0.5,2-0.5
		c2.2,0,3.3,1.7,3.4,4.9C273,299.9,272.4,301.8,271.1,304.2z M284.4,295.6c-0.1,0.2-0.4,0.4-0.8,0.4c-0.3,0-0.5-0.2-0.7-0.4
		c-0.1-0.2-0.1-0.4-0.2-0.5v-0.2c-0.3-0.1-0.8,0.2-1.9,1.6c-1,1.4-1.7,2.7-2.2,3.9s-0.6,2.6-0.6,4.2c0,0.1,0,1.1,0.1,2.9
		c0,0.4-0.2,0.7-0.5,1s-0.6,0.4-1,0.4c-0.4,0-0.7-0.2-0.9-0.4c-0.3-0.4-0.4-0.9-0.4-1.6c0.3-2.4,0.4-4.4,0.4-5.9
		c0-1.5-0.1-3.4-0.3-5.5c-0.1-0.4,0.1-0.7,0.4-1.1s0.6-0.5,1-0.5c0.4,0,0.9,0.1,1.3,0.8c0.2,0.4,0.2,0.7,0.2,1.1
		c0,0.3-0.1,0.5-0.1,0.8c1.3-2.5,2.6-3.8,4.1-3.8c1.3,0,2.2,0.6,2.3,1.9C284.7,295,284.6,295.4,284.4,295.6z M299.1,306.4
		c-0.1,0.4-0.4,1-0.9,1.3c-0.4,0.3-0.7,0.4-1.1,0.4c-2,0-3.1-2-3.6-6.1c-0.1-1-0.2-2.2-0.4-3.8c-0.1-0.5-0.1-0.8-0.2-1
		c-0.3,0.3-1,1-2.5,3.4c-1.6,2.4-2.7,4.7-3.3,6.7c-0.3,1-0.9,1.2-1.3,1.2s-0.7-0.1-0.9-0.4c-0.2-0.2-0.3-0.5-0.3-0.9
		c0-0.1,0-0.3,1.2-7.5c0-0.5,0.1-1.3,0.2-2.4c0.1-1.5,0.8-1.9,1.4-1.9c0.6,0,0.9,0.2,1.1,0.4c0.3,0.3,0.3,0.5,0.3,1.1
		c-0.1,0.5-0.6,3.1-0.6,3.1c2.9-4.5,4-5.1,4.8-5.1c0.8,0,2,0.4,2.4,2.5l0.4,3.4c0.2,1.8,0.3,2.8,0.4,3c0.4,2.1,0.8,2.2,0.8,2.2
		s0.2,0,0.6-0.4c0,0,0.3-0.2,0.4-0.3c0.1-0.2,0.4-0.4,0.8-0.2S299.2,305.9,299.1,306.4z M323.6,221.7l-4.7,42
		c-0.2,1.6-0.6,3-1.4,4.4c-0.7,1.3-1.7,2.4-2.9,3.4c-1.2,0.9-2.4,1.6-3.9,2.1c-1.4,0.4-3,0.6-4.6,0.4l-3.5-0.4
		c-1.6-0.2-3-0.6-4.4-1.4c-1.3-0.7-2.4-1.7-3.4-2.9c-0.9-1.2-1.6-2.4-2.1-3.9c-0.4-1.4-0.6-3-0.4-4.6l4.7-42c0.2-1.6,0.6-3,1.4-4.4
		s1.7-2.4,2.9-3.4c1.2-0.9,2.4-1.6,3.9-2.1c1.4-0.4,3-0.6,4.6-0.4l3.5,0.4c1.6,0.2,3,0.6,4.4,1.4c1.3,0.7,2.4,1.7,3.4,2.9
		c0.9,1.2,1.6,2.4,2.1,3.9C323.6,218.6,323.8,220.1,323.6,221.7z M359.1,227.8l-2.3,14.8c-0.4,2.2-1.3,4.1-2.7,5.7
		c-1.4,1.6-3.1,2.7-5.2,3.4l3.9,27c0,0.9-0.4,1.3-1.1,1.1l-8.2-1.3c-0.4-0.1-0.7-0.3-1-0.5s-0.4-0.6-0.5-1l-3-23.2l-3.7,22.5
		c-0.2,0.5-0.6,0.8-1.3,0.7l-8.1-1.3c-0.8-0.1-1.2-0.6-1.1-1.4l9.8-60.8c0.1-0.8,0.6-1.2,1.4-1.1l13.5,2.2c1.5,0.3,3,0.8,4.3,1.6
		c1.3,0.8,2.3,1.8,3.2,3c0.9,1.2,1.5,2.5,1.9,4C359.2,224.7,359.3,226.3,359.1,227.8z M384.2,297.4c-2.2,0-3.9-1.7-3.9-3.9
		s1.7-3.9,3.9-3.9c2.2,0,3.9,1.7,3.9,3.9S386.4,297.4,384.2,297.4z M394,234.4l-0.7,3.4c-0.2,0.8-0.7,1.3-1.5,1.3l-8.6,0.4
		c-0.8,0.1-1.2-0.3-1-1.2l1.3-5.8c0.1-0.6,0-1.2-0.3-1.6c-0.4-0.5-0.8-0.8-1.3-1l-0.7-0.2c-0.6-0.1-1.2,0-1.6,0.3
		c-0.5,0.4-0.8,0.8-1,1.4l-1.7,8.2c-0.1,0.6-0.1,1.3,0,1.8c0.1,0.5,0.3,1.1,0.7,1.6l9.9,11.3c0.8,1.1,1.3,2.1,1.3,3
		c0.1,0.9,0.1,2,0,3l-3.3,15.4c-0.4,1.5-1,3-1.8,4.2c-0.9,1.3-2,2.2-3.1,3c-1.3,0.8-2.6,1.3-4.1,1.6c-1.5,0.3-3,0.3-4.6,0l-3.4-0.7
		c-1.5-0.4-3-1-4.2-1.8c-1.3-0.9-2.2-2-3-3.2s-1.3-2.6-1.6-4.1c-0.3-1.5-0.3-3,0-4.6l1.9-8.6c0.2-0.8,0.7-1.3,1.5-1.3l8.6-0.4
		c0.8-0.1,1.2,0.3,1,1.2l-2.3,11c-0.1,0.6,0,1.2,0.3,1.7c0.4,0.5,0.8,0.8,1.3,1l0.7,0.2c0.6,0.1,1.2,0,1.6-0.3
		c0.5-0.4,0.8-0.8,1-1.3l2.5-11.8c0.1-0.8,0.1-1.5,0.1-2.2s-0.3-1.3-0.7-1.9l-9.7-11.4c-0.7-1-1.2-2-1.3-3c-0.2-0.9-0.2-2.1,0.1-3.4
		l2.3-10.8c0.4-1.5,0.9-3,1.8-4.2c0.9-1.3,2-2.2,3.2-3c1.3-0.8,2.6-1.3,4.1-1.6c1.5-0.3,3-0.3,4.6,0l3.4,0.7
		c1.3,0.2,2.8,0.8,3.9,1.7c1.3,0.9,2.2,2,3,3.2c0.8,1.3,1.3,2.6,1.6,4.1C394.3,231.4,394.3,232.9,394,234.4z"/>
	<path d="M191.7,140.8c0.5,0.1,0.7,0.8,1,1.1c0,0.1,0.1,0.2,0.2,0.2c0.1,0,0.3,0,0.4-0.2c0.1-0.1,0.1-0.3,0.2-0.4l0.2-0.4l0.1-0.1
		c0.2-0.2,0.4-0.3,0.7-0.3c0.6,0,0.8,1,1.1,1.1c0.1,0.1,0.1,0.1,0.2,0.1c0.1,0,0.3,0,0.4-0.2c0.1-0.2,0.1-0.4,0.2-0.4
		c0-0.2,0.1-0.3,0.2-0.4c0.2-0.2,0.4-0.3,0.7-0.3c0.6,0,0.8,0.9,1.1,1.1c0.1,0.1,0.2,0.1,0.3,0.1c0.1,0,0.2,0,0.3-0.1
		c0.3-0.2,0.4-1.1,1.1-1.1c0.3-0.1,0.4,0,0.7,0.3c0,0.1,0.1,0.3,0.2,0.4c0.1,0.2,0.1,0.4,0.2,0.4c0.1,0.2,0.3,0.2,0.4,0.2
		c0.1,0,0.1,0,0.2-0.1c0.3-0.1,0.4-1,1.1-1.1c0.3-0.1,0.4,0,0.7,0.3l0.1,0.1c0.1,0.2,0.2,0.3,0.2,0.4c0.1,0.2,0.1,0.3,0.2,0.4
		c0.1,0.2,0.3,0.2,0.4,0.2l0.2-0.2v-0.1c0.1-0.2,0.3-0.5,0.4-0.8c0.2-0.2,0.4-0.3,0.6-0.3s0.4,0.1,0.6,0.3c0.3,0.3,0.4,0.6,0.5,0.8
		c0,0.1,0.1,0.2,0.2,0.2c0.1,0,0.3,0,0.4-0.2c0.1-0.1,0.1-0.3,0.2-0.4l0.2-0.4l0.1-0.1c0.2-0.2,0.4-0.3,0.7-0.3c0.6,0,0.8,1,1.1,1.1
		c0.1,0.1,0.1,0.1,0.2,0.1c0.1,0,0.3,0,0.4-0.2s0.1-0.4,0.2-0.4c0-0.2,0.1-0.3,0.2-0.4c0.2-0.2,0.4-0.3,0.7-0.3
		c0.6,0,0.8,0.9,1.1,1.1c0.1,0.1,0.2,0.1,0.3,0.1c0.1,0,0.2,0,0.3-0.1c0.3-0.2,0.4-1.1,1.1-1.1c0.3-0.1,0.4,0,0.7,0.3
		c0,0.1,0.1,0.3,0.2,0.4c0.1,0.2,0.1,0.4,0.2,0.4c0.1,0.2,0.3,0.2,0.4,0.2c0.1,0,0.1,0,0.2-0.1c0.3-0.1,0.4-1,1.1-1.1
		c0.3-0.1,0.4,0,0.7,0.3l0.1,0.1c0.1,0.2,0.2,0.3,0.2,0.4c0.1,0.2,0.1,0.3,0.2,0.4c0.1,0.2,0.3,0.2,0.4,0.2c0.1,0,0.1,0,0.2-0.1
		c0.2-0.2,0.4-0.6,0.6-0.9c0.2-0.1,0.4-0.2,0.5-0.2c0.2,0,0.4,0.1,0.5,0.2c0.3,0.3,0.4,0.7,0.6,0.9c0,0.1,0.1,0.2,0.2,0.2
		s0.3,0,0.4-0.2c0.1-0.1,0.1-0.3,0.2-0.4l0.2-0.4l0.1-0.1c0.2-0.2,0.4-0.3,0.7-0.3c0.6,0,0.8,1,1.1,1.1c0.1,0.1,0.1,0.1,0.2,0.1
		s0.3,0,0.4-0.2c0.1-0.2,0.1-0.4,0.2-0.4c0-0.2,0.1-0.3,0.2-0.4c0.2-0.2,0.4-0.3,0.7-0.3c0.6,0,0.8,0.9,1.1,1.1
		c0.1,0.1,0.2,0.1,0.3,0.1c0.1,0,0.2,0,0.3-0.1c0.3-0.2,0.4-1.1,1.1-1.1c0.3-0.1,0.4,0,0.7,0.3c0,0.1,0.1,0.3,0.2,0.4
		c0.1,0.2,0.1,0.4,0.2,0.4c0.1,0.2,0.3,0.2,0.4,0.2s0.1,0,0.2-0.1c0.3-0.1,0.4-1,1.1-1.1c0.3-0.1,0.4,0,0.7,0.3l0.1,0.1
		c0.1,0.2,0.2,0.3,0.2,0.4c0.1,0.2,0.1,0.3,0.2,0.4c0.1,0.2,0.3,0.2,0.4,0.2l0.2-0.2v-0.1c0.1-0.2,0.3-0.5,0.4-0.8
		c0.2-0.2,0.4-0.3,0.6-0.3s0.4,0.1,0.6,0.3c0.3,0.3,0.4,0.6,0.5,0.8c0,0.1,0.1,0.2,0.2,0.2c0.1,0,0.3,0,0.4-0.2
		c0.1-0.1,0.1-0.3,0.2-0.4l0.2-0.4l0.1-0.1c0.2-0.2,0.4-0.3,0.7-0.3c0.6,0,0.8,1,1.1,1.1c0.1,0.1,0.1,0.1,0.2,0.1s0.3,0,0.4-0.2
		c0.1-0.2,0.1-0.4,0.2-0.4c0-0.2,0.1-0.3,0.2-0.4c0.2-0.2,0.4-0.3,0.7-0.3c0.6,0,0.8,0.9,1.1,1.1c0.1,0.1,0.2,0.1,0.3,0.1
		c0.1,0,0.2,0,0.3-0.1c0.3-0.2,0.4-1.1,1.1-1.1c0.3-0.1,0.4,0,0.7,0.3c0,0.1,0.1,0.3,0.2,0.4c0.1,0.2,0.1,0.4,0.2,0.4
		c0.1,0.2,0.3,0.2,0.4,0.2s0.1,0,0.2-0.1c0.3-0.1,0.4-1,1.1-1.1c0.3-0.1,0.4,0,0.7,0.3l0.1,0.1c0.1,0.2,0.2,0.3,0.2,0.4
		c0.1,0.2,0.1,0.3,0.2,0.4c0.1,0.2,0.3,0.2,0.4,0.2l0.2-0.2c0.2-0.2,0.4-0.7,0.7-1c0.1,0,0.2-0.1,0.4-0.1c0.2,0,0.4,0,0.4,0.1
		c0.4,0.3,0.5,0.8,0.7,1c0,0.1,0.1,0.2,0.2,0.2c0.1,0,0.3,0,0.4-0.2c0.1-0.1,0.1-0.3,0.2-0.4l0.2-0.4l0.1-0.1
		c0.2-0.2,0.4-0.3,0.7-0.3c0.6,0,0.8,1,1.1,1.1c0.1,0.1,0.1,0.1,0.2,0.1c0.1,0,0.3,0,0.4-0.2c0.1-0.2,0.1-0.4,0.2-0.4
		c0-0.2,0.1-0.3,0.2-0.4c0.2-0.2,0.4-0.3,0.7-0.3c0.6,0,0.8,0.9,1.1,1.1c0.1,0.1,0.2,0.1,0.3,0.1c0.1,0,0.2,0,0.3-0.1
		c0.3-0.2,0.4-1.1,1.1-1.1c0.3-0.1,0.4,0,0.7,0.3c0,0.1,0.1,0.3,0.2,0.4c0.1,0.2,0.1,0.4,0.2,0.4c0.1,0.2,0.3,0.2,0.4,0.2
		s0.1,0,0.2-0.1c0.3-0.1,0.4-1,1.1-1.1c0.2,0,0.4,0,0.6,0.2v-1.4h-67v1.6C191.2,140.9,191.4,140.8,191.7,140.8z"/>
	<path d="M254.4,138c0.6,0,1.3,0.1,1.9,0.3l0.4-0.8c-0.4-0.1-1.2-0.3-2.2-0.4c-0.2,0-0.4-0.1-0.5-0.1c-0.7-0.1-1.4-0.2-2.1-0.2
		c-1.8-0.1-3.3-0.1-3.3-0.1H197l0.5,1.3H254.4z"/>
	<rect x="194.1" y="146.6" width="4.5" height="11.6"/>
	<path d="M232.5,132.3c0-0.2-0.1-0.3-0.3-0.3h-21.7c-0.2,0-0.3,0.1-0.3,0.3c0,0.2,0.1,0.3,0.3,0.3h21.7
		C232.4,132.6,232.5,132.5,232.5,132.3z"/>
	<path d="M193.3,165h31.8V159h-31.8V165z M204.1,159.3h17c0.6,1,0.4,2.1,0.1,2.8h3.4v0.7h-3.4v1.8H204v-1.7l0.2-0.3
		C204.2,162.6,203,160.9,204.1,159.3z"/>
</g>
</svg>
