<?xml version="1.0" standalone="no"?>
<!DOCTYPE svg PUBLIC "-//W3C//DTD SVG 20010904//EN"
 "http://www.w3.org/TR/2001/REC-SVG-20010904/DTD/svg10.dtd">
<svg version="1.0" xmlns="http://www.w3.org/2000/svg"
 width="700.000000pt" height="700.000000pt" viewBox="0 0 700.000000 700.000000"
 preserveAspectRatio="xMidYMid meet">
<metadata>
Created by potrace 1.11, written by Peter Selinger 2001-2013
</metadata>
<g transform="translate(0.000000,700.000000) scale(0.100000,-0.100000)"
fill="#000000" stroke="none">
<path d="M740 6458 c0 -47 0 -5571 0 -5809 l0 -146 615 0 615 0 1 31 c0 17 0
822 1 1789 0 1485 2 1755 14 1740 7 -10 14 -21 14 -24 0 -4 57 -123 126 -265
147 -302 269 -552 419 -859 59 -121 151 -310 205 -421 54 -110 150 -309 215
-442 l118 -240 411 1 411 2 32 65 c34 68 262 535 388 795 40 83 130 267 200
410 70 143 160 328 200 410 191 394 285 585 287 585 2 0 3 -805 3 -1789 l0
-1788 617 0 618 0 0 2998 0 2999 -603 0 -603 0 -29 -62 c-16 -35 -75 -157
-131 -273 -56 -115 -124 -257 -152 -315 -27 -58 -82 -172 -122 -255 -40 -82
-101 -208 -135 -280 -34 -71 -100 -206 -145 -300 -45 -93 -104 -215 -130 -270
-26 -55 -80 -167 -120 -250 -40 -82 -98 -204 -130 -270 -32 -66 -87 -181 -123
-255 -204 -425 -252 -524 -291 -605 l-44 -90 -55 115 c-30 63 -107 222 -171
354 -64 131 -116 240 -116 241 0 2 -44 95 -99 207 -133 274 -222 459 -291 603
-59 123 -123 257 -250 520 -40 83 -98 204 -130 270 -32 66 -93 192 -135 280
-43 88 -107 221 -142 295 -36 74 -87 181 -115 238 l-49 102 -600 0 -599 0 0
-42z"/>
</g>
</svg>
